# xmcd
#
# Track frame offsets: 
#        150
#        17777
#        35245
#        48719
#        64944
#        77496
#        91274
#        105510
#        118690
#        138751
#        154819
#        169700
#        186388
#        208567
#        215992
#        226400
#        242302
#        258729
#        278385
#        292128
#        304740
#        313621
#        325495
#
# Disc length: 4583 seconds
#
# Revision: 0
# Processed by: cddbd v1.5.1PL2 Copyright (c) Steve Scherf et al.
# Submitted via: ExactAudioCopy v0.95a4
#
DISCID=5311e517
DTITLE=Hank Williams III - Stubb's BBQ - Austin TX - 1-11-03
DYEAR=2003
DGENRE=Country
TTITLE0=Trashville
TTITLE1=7 Months, 39 Days
TTITLE2=Straight to Hell
TTITLE3=I Don't Know
TTITLE4=One Horse Town
TTITLE5=Even Though I'm Broke
TTITLE6=If the Shoe Fits
TTITLE7=A Little Bit of Smoke
TTITLE8=Mississippi Mud
TTITLE9=87 Southbound
TTITLE10=Thrown Out of the Bar
TTITLE11=Nighttime Ramblin' Man
TTITLE12=Whiskey, Weed and Women
TTITLE13=Long-Haired Redneck
TTITLE14=If You Don't Like Hank Williams
TTITLE15=Howlin' at the Moon
TTITLE16=Whiskey Bent and Hell Bound
TTITLE17=Cocaine Blues
TTITLE18=Lowdown Truck Driver
TTITLE19=The Devil is My Friend
TTITLE20=Blue Devil
TTITLE21=Lovin' and Huggin'
TTITLE22=Dick in Dixie
EXTD=
EXTT0=
EXTT1=
EXTT2=
EXTT3=
EXTT4=
EXTT5=
EXTT6=
EXTT7=
EXTT8=
EXTT9=
EXTT10=
EXTT11=
EXTT12=
EXTT13=
EXTT14=
EXTT15=
EXTT16=
EXTT17=
EXTT18=
EXTT19=
EXTT20=
EXTT21=
EXTT22=
PLAYORDER=
